{
    "asset" : {
        "generator" : "Khronos glTF Blender I/O v1.1.45",
        "version" : "2.0"
    },
    "scene" : 0,
    "scenes" : [
        {
            "name" : "Scene",
            "nodes" : [
                0
            ]
        }
    ],
    "nodes" : [
        {
            "mesh" : 0,
            "name" : "Circle_Gold"
        }
    ],
    "materials" : [
        {
            "doubleSided" : true,
            "emissiveFactor" : [
                0,
                0,
                0
            ],
            "name" : "goldRoughMaterial",
            "pbrMetallicRoughness" : {
                "baseColorFactor" : [
                    0.8796225786209106,
                    0.7230553030967712,
                    0.5332766175270081,
                    1
                ],
                "metallicFactor" : 1,
                "roughnessFactor" : 0.800000011920929
            }
        }
    ],
    "meshes" : [
        {
            "name" : "Mesh.003",
            "primitives" : [
                {
                    "attributes" : {
                        "POSITION" : 0,
                        "NORMAL" : 1
                    },
                    "indices" : 2,
                    "material" : 0
                }
            ]
        }
    ],
    "accessors" : [
        {
            "bufferView" : 0,
            "componentType" : 5126,
            "count" : 793,
            "max" : [
                1.2675151824951172,
                0.01667773351073265,
                1.2675151824951172
            ],
            "min" : [
                -1.2675151824951172,
                -0.01667773351073265,
                -1.2675151824951172
            ],
            "type" : "VEC3"
        },
        {
            "bufferView" : 1,
            "componentType" : 5126,
            "count" : 793,
            "type" : "VEC3"
        },
        {
            "bufferView" : 2,
            "componentType" : 5123,
            "count" : 4320,
            "type" : "SCALAR"
        }
    ],
    "bufferViews" : [
        {
            "buffer" : 0,
            "byteLength" : 9516,
            "byteOffset" : 0
        },
        {
            "buffer" : 0,
            "byteLength" : 9516,
            "byteOffset" : 9516
        },
        {
            "buffer" : 0,
            "byteLength" : 8640,
            "byteOffset" : 19032
        }
    ],
    "buffers" : [
        {
            "byteLength" : 27672,
            "uri" : "ringBase.bin"
        }
    ]
}
