{
    "asset" : {
        "generator" : "Khronos glTF Blender I/O v1.1.45",
        "version" : "2.0"
    },
    "scene" : 0,
    "scenes" : [
        {
            "name" : "Scene",
            "nodes" : [
                0
            ]
        }
    ],
    "nodes" : [
        {
            "mesh" : 0,
            "name" : "Circle_Gold.001"
        }
    ],
    "meshes" : [
        {
            "name" : "Mesh.004",
            "primitives" : [
                {
                    "attributes" : {
                        "POSITION" : 0,
                        "NORMAL" : 1,
                        "TEXCOORD_0" : 2
                    },
                    "indices" : 3
                }
            ]
        }
    ],
    "accessors" : [
        {
            "bufferView" : 0,
            "componentType" : 5126,
            "count" : 871,
            "max" : [
                1.2825151681900024,
                0.03167681768536568,
                1.2825151681900024
            ],
            "min" : [
                -1.2825151681900024,
                -0.03167681768536568,
                -1.2811869382858276
            ],
            "type" : "VEC3"
        },
        {
            "bufferView" : 1,
            "componentType" : 5126,
            "count" : 871,
            "type" : "VEC3"
        },
        {
            "bufferView" : 2,
            "componentType" : 5126,
            "count" : 871,
            "type" : "VEC2"
        },
        {
            "bufferView" : 3,
            "componentType" : 5123,
            "count" : 4752,
            "type" : "SCALAR"
        }
    ],
    "bufferViews" : [
        {
            "buffer" : 0,
            "byteLength" : 10452,
            "byteOffset" : 0
        },
        {
            "buffer" : 0,
            "byteLength" : 10452,
            "byteOffset" : 10452
        },
        {
            "buffer" : 0,
            "byteLength" : 6968,
            "byteOffset" : 20904
        },
        {
            "buffer" : 0,
            "byteLength" : 9504,
            "byteOffset" : 27872
        }
    ],
    "buffers" : [
        {
            "byteLength" : 37376,
            "uri" : "ringActive.bin"
        }
    ]
}
